<?xml version="1.0" encoding="utf-8"?>
<!-- Generator: Adobe Illustrator 26.0.1, SVG Export Plug-In . SVG Version: 6.00 Build 0)  -->
<svg version="1.1" id="Layer_1" xmlns="http://www.w3.org/2000/svg" xmlns:xlink="http://www.w3.org/1999/xlink" x="0px" y="0px"
	 viewBox="0 0 1100 764" style="enable-background:new 0 0 1100 764;" xml:space="preserve">
<style type="text/css">
	.st0{fill:#5188EE;}
	.st1{fill:#64B3EC;}
</style>
<g>
	<path class="st0" d="M531.9,262.4c20,0,35.5,7,46.7,21c9.2,11.4,13.8,25,13.8,40.7c0,16.1-4.8,29.9-14.4,41.3
		c-2.8,3.3-5.9,6.2-9.2,8.6l14.8,22.2H556l-8.3-12.6c-5.1,1.1-10.4,1.7-15.7,1.7c-20.2,0-35.8-7.1-47-21.2
		c-9-11.2-13.5-24.6-13.5-40.1c0-16,4.7-29.8,14.1-41.3C496.9,269.3,512.4,262.5,531.9,262.4z M531.9,285.5
		c-12.9,0-22.6,5.2-29,15.7c-4,6.7-6.1,14.2-6.1,22.7c0,11.7,3.5,21.2,10.6,28.6c6.5,6.6,14.6,9.8,24.5,9.8h1.8L521.2,343h26.5
		l7.3,10.6c7.6-7.1,11.5-16.4,11.9-28c0-0.6,0-1.2,0-1.7c0-11.8-3.6-21.4-10.7-28.7C549.8,288.8,541.7,285.5,531.9,285.5z"/>
	<path class="st1" d="M604.1,263.9h24.7v120h-24.7V263.9z"/>
	<path class="st0" d="M434.6,440.9c0,11.5-7.6,21.7-22.7,21.7c-14,0-22-9.6-22-21.7c0-11.4,8.5-21.5,22.5-21.5
		C426.8,419.5,434.6,429.6,434.6,440.9z M400.5,440.8c0,7.8,4,13.9,12,13.9c8.3,0,11.5-7,11.5-13.7c0-7.3-3.6-13.7-11.9-13.7
		C404,427.3,400.5,433.8,400.5,440.8z M424.7,455.2l12.7,8.7l-5.3,6.5l-14.9-10.2L424.7,455.2z"/>
	<path class="st0" d="M476,444.3h-23.1v9.4h25.7l-1.2,8h-34.5v-41.3h34.4v8h-24.3v7.8H476V444.3z"/>
	<path class="st0" d="M484,454.4l25-26.2h-23.7v-7.8h36.4v7.9l-24.5,25.7h26.4l-1.1,7.8H484V454.4z"/>
	<path class="st0" d="M543,461.7l-16.9-41.3h11.1l7.3,19.7c2.7,7.4,3.9,11.4,4.6,14.1h0.1c0.6-2.4,1.2-4.1,5.1-14.8l7-18.9h10.7
		L555,461.7H543z"/>
	<path class="st0" d="M618.8,440.9c0,11.5-7.6,21.7-22.7,21.7c-14,0-22-9.6-22-21.7c0-11.4,8.5-21.5,22.5-21.5
		C611,419.5,618.8,429.6,618.8,440.9z M584.7,440.8c0,7.8,4,13.9,12,13.9c8.3,0,11.5-7,11.5-13.7c0-7.3-3.6-13.7-11.9-13.7
		C588.2,427.3,584.7,433.8,584.7,440.8z"/>
	<path class="st0" d="M637,445.8v15.9h-9.9v-41.3h22.5c9.5,0,15,4.7,15,11.8c0,5.3-3.1,8.5-7.2,9.8c1.7,0.7,6.1,2.3,6.1,9.7v2.1
		c0,2.8-0.1,6,0.5,8h-10.3c-0.7-1.8-0.8-4.3-0.8-8.7v-1.4c0-4.2-1.5-5.9-7.6-5.9H637z M637,438.2h10.3c4.9,0,7-1.8,7-5.2
		c0-3.3-2.2-5.1-6.9-5.1H637V438.2z"/>
	<path class="st0" d="M715.2,440.9c0,11.5-7.6,21.7-22.7,21.7c-14,0-22-9.6-22-21.7c0-11.4,8.5-21.5,22.5-21.5
		C707.4,419.5,715.2,429.6,715.2,440.9z M681.1,440.8c0,7.8,4,13.9,12,13.9c8.3,0,11.5-7,11.5-13.7c0-7.3-3.6-13.7-11.9-13.7
		C684.6,427.3,681.1,433.8,681.1,440.8z"/>
	<path class="st1" d="M457.7,479.4v29.3h-4.8v-29.3H457.7z"/>
	<path class="st1" d="M474.3,508.7v-29.3h5.8c7,10,14.9,20.2,16.6,23.4h0.1c-0.3-3.6-0.2-8.5-0.2-13.2v-10.1h4.5v29.3h-5.4
		c-4-5.5-15-21-17-24.4h-0.1c0.2,3.7,0.2,7.9,0.2,13.1v11.3H474.3z"/>
	<path class="st1" d="M526.6,508.7L514,479.4h5.3l6.3,15.2c2.3,5.7,3.3,8.4,3.8,10.1h0.1c0.5-1.5,1.6-4.2,3.7-9.7l6.6-15.6h5.2
		l-12.8,29.3H526.6z"/>
	<path class="st1" d="M579.6,495.4h-17.3v9.3h19.1l-0.6,4h-23.3v-29.3h23v4h-18.2v7.9h17.3V495.4z"/>
	<path class="st1" d="M598.1,500.1c1,3.2,3.4,5.4,9,5.4c5.5,0,7.5-2,7.5-4.6c0-2.7-1.6-4.3-8.8-5.5c-9.1-1.6-11.2-4.4-11.2-8.4
		c0-5.3,5.1-8.3,11.6-8.3c9.7,0,12,5,12.3,8.1h-4.9c-0.6-1.9-1.7-4.3-7.6-4.3c-4,0-6.5,1.4-6.5,4c0,2.2,1.2,3.6,7.6,4.7
		c10.7,1.8,12.4,5.1,12.4,9.2c0,4.8-3.8,8.8-12.8,8.8c-8.4,0-12.6-3.8-13.5-9.2H598.1z"/>
	<path class="st1" d="M641,483.4h-11v-4h26.8v4h-10.9v25.3H641V483.4z"/>
</g>
</svg>
